<svg width="201" height="53" viewBox="0 0 201 53" fill="none" xmlns="http://www.w3.org/2000/svg">
<path d="M30.1224 23.2407C28.9867 24.7594 28.4191 26.8718 28.5741 29.0032L28.5474 28.9678C28.7067 31.476 28.026 33.95 26.6868 35.7298C25.3476 37.5097 23.4862 38.4145 21.599 38.2027L21.6257 38.2382C19.3407 37.9555 17.1678 39.6074 16.1926 42.3683C15.2175 45.1293 15.6496 48.4064 17.273 50.5621C18.8965 52.7178 21.3626 53.2892 23.439 51.9907C25.5155 50.6921 26.7564 47.8026 26.5417 44.766L26.5698 44.8014C26.4105 42.2932 27.0912 39.8192 28.4304 38.0393C29.7696 36.2594 31.631 35.3547 33.5182 35.5664L33.4901 35.531C36.0013 35.8312 38.338 33.7961 39.1334 30.6161C39.9288 27.4361 38.9739 23.9467 36.8273 22.1888C34.6807 20.431 31.9063 20.8665 30.1269 23.2407H30.1224Z" fill="#5454D4"/>
<path d="M19.2025 33.5989L19.1744 33.5635C20.779 33.7784 22.3715 33.0242 23.5124 31.509C24.6532 29.9939 25.2219 27.8779 25.0614 25.745L25.0895 25.7804C24.9302 23.2722 25.611 20.7982 26.9501 19.0183C28.2893 17.2385 30.1508 16.3337 32.0379 16.5455L32.0098 16.51C34.2949 16.7953 36.4692 15.1452 37.4458 12.3846C38.4224 9.62405 37.9916 6.34597 36.3687 4.18895C34.7457 2.03192 32.2793 1.45929 30.2022 2.75728C28.1252 4.05527 26.8837 6.94508 27.0983 9.98221L27.0716 9.94483C27.2315 12.4532 26.5509 14.9276 25.2116 16.7077C23.8723 18.4877 22.0105 19.3922 20.1232 19.1798L20.1499 19.2172C18.5452 19.0023 16.9527 19.7565 15.8118 21.2716C14.671 22.7868 14.1023 24.9027 14.2628 27.0356L14.2362 27.0002C14.395 29.5083 13.7141 31.9818 12.375 33.7615C11.0359 35.5413 9.17482 36.4462 7.28778 36.2352L7.31442 36.2706C5.02929 35.9854 2.855 37.6355 1.87839 40.396C0.90178 43.1566 1.33263 46.4347 2.95557 48.5917C4.57852 50.7487 7.04495 51.3214 9.122 50.0234C11.199 48.7254 12.4406 45.8356 12.226 42.7984L12.2541 42.8339C12.0948 40.3256 12.7755 37.8516 14.1147 36.0718C15.4539 34.2919 17.3153 33.3871 19.2025 33.5989V33.5989Z" fill="#FF7143"/>
<path d="M9.28171 29.6502C10.4177 28.1317 10.9848 26.019 10.8286 23.8877L10.8567 23.9231C10.6973 21.4142 11.3784 18.9395 12.7183 17.1594C14.0581 15.3794 15.9204 14.4752 17.8081 14.6882L17.78 14.6527C20.0643 14.9372 22.2375 13.2872 23.2135 10.5276C24.1896 7.76787 23.7587 4.49108 22.1364 2.33485C20.5141 0.17863 18.0486 -0.393969 15.9722 0.903231C13.8958 2.20043 12.6544 5.08885 12.8684 8.12492L12.8418 8.0895C13.0011 10.5977 12.3203 13.0717 10.9812 14.8516C9.64198 16.6315 7.78054 17.5362 5.89336 17.3245L5.92001 17.3599C3.40888 17.0606 1.07266 19.0962 0.277732 22.2762C-0.517197 25.4561 0.437973 28.9452 2.58459 30.7026C4.73121 32.4601 7.50542 32.0243 9.28467 29.6502H9.28171Z" fill="#5454D4"/>
<path d="M55.1361 10.0276H59.5325V38.4624H55.1361V10.0276Z" fill="#19191B"/>
<path fill-rule="evenodd" clip-rule="evenodd" d="M66.7954 19.1591C63.8941 20.7699 62.0098 24.5467 62.0223 28.7256C62.0071 31.4658 62.8215 34.0991 64.2823 36.0329C65.7432 37.9667 67.7277 39.0385 69.7893 39.0073C72.9336 39.0072 75.7677 36.4876 76.968 32.6251C78.1683 28.7627 77.4981 24.3193 75.2703 21.3703C73.0425 18.4212 69.6967 17.5483 66.7954 19.1591ZM69.7269 24.3686C71.5768 24.3232 73.1087 26.2674 73.1599 28.7256C73.2098 29.9442 72.874 31.1351 72.2338 32.0099C71.5936 32.8848 70.7072 33.3639 69.7893 33.3313C67.9391 33.3314 66.4343 31.35 66.4172 28.891C66.4001 26.432 67.877 24.414 69.7269 24.3686Z" fill="#19191B"/>
<path fill-rule="evenodd" clip-rule="evenodd" d="M95.0783 37.4806V18.987L90.7988 18.9831V20.9702C89.7549 19.2725 88.1672 18.333 86.5194 18.4381C82.4997 18.6066 79.3069 22.9862 79.3069 28.3312C79.3069 33.6763 82.4997 38.0558 86.5194 38.2243C88.1672 38.3294 89.7549 37.39 90.7988 35.6922V37.4727C90.8724 38.6475 90.5403 39.803 89.8963 40.6135C89.2522 41.4239 88.366 41.8015 87.4875 41.6397C86.0978 41.8282 84.7661 40.8503 84.1465 39.1863L80.3955 42.0686C81.863 45.2465 84.5432 47.0686 87.3409 46.7903C91.2385 46.7903 95.0783 44.0242 95.0783 37.4806ZM88.7112 23.8331C90.0337 24.6258 90.8608 26.4076 90.8003 28.3342C90.8277 29.5781 90.458 30.7795 89.7826 31.6415C89.1073 32.5035 88.1892 32.9458 87.2551 32.8592C85.8043 32.8615 84.4982 31.6912 83.9557 29.9028C83.4133 28.1144 83.7436 26.0674 84.79 24.7318C85.8364 23.3962 87.3887 23.0404 88.7112 23.8331Z" fill="#19191B"/>
<path fill-rule="evenodd" clip-rule="evenodd" d="M102.341 19.1591C99.4399 20.7699 97.5555 24.5467 97.5681 28.7256C97.5529 31.4658 98.3673 34.0991 99.8281 36.0329C101.289 37.9667 103.273 39.0385 105.335 39.0073C108.479 39.0072 111.313 36.4876 112.514 32.6251C113.714 28.7627 113.044 24.3193 110.816 21.3703C108.588 18.4212 105.243 17.5483 102.341 19.1591ZM105.273 24.3686C107.123 24.3232 108.654 26.2674 108.706 28.7256C108.756 29.9442 108.42 31.1351 107.78 32.0099C107.139 32.8848 106.253 33.3639 105.335 33.3313C103.485 33.3314 101.98 31.35 101.963 28.891C101.946 26.432 103.423 24.414 105.273 24.3686Z" fill="#19191B"/>
<path fill-rule="evenodd" clip-rule="evenodd" d="M116.781 10.5287C115.795 11.0713 115.152 12.3497 115.152 13.7677C115.167 15.696 116.339 17.2544 117.79 17.2736C118.857 17.2736 119.819 16.4194 120.227 15.1094C120.635 13.7993 120.41 12.2914 119.655 11.2887C118.901 10.286 117.766 9.98604 116.781 10.5287ZM119.994 18.9871H115.596L115.59 38.4643H119.994V18.9871Z" fill="#19191B"/>
<path fill-rule="evenodd" clip-rule="evenodd" d="M137.084 35.8023C138.398 33.8724 139.08 31.3255 138.977 28.7256C139.081 26.1253 138.399 23.5775 137.085 21.6471C135.77 19.7167 133.93 18.5631 131.973 18.442C130.323 18.3224 128.72 19.1943 127.607 20.8167V18.987H123.211V46.2532H127.607V36.6306C128.72 38.2542 130.323 39.1269 131.973 39.0073C133.929 38.8857 135.769 37.7322 137.084 35.8023ZM131.036 24.2071C132.951 24.1645 134.533 26.1815 134.581 28.7256C134.647 29.9899 134.304 31.2318 133.639 32.1392C132.973 33.0465 132.047 33.5332 131.095 33.4768C129.18 33.4771 127.623 31.4255 127.607 28.8807C127.591 26.3359 129.122 24.2497 131.036 24.2071Z" fill="#19191B"/>
<path d="M152.544 32.6191C152.544 37.0989 149.614 39.0073 146.45 39.0073C143.833 39.3222 141.337 37.4858 140.148 34.3721L143.957 31.4898C144.274 32.9394 145.311 33.8971 146.444 33.7877C147.498 33.7877 148.026 33.3589 148.026 32.5817C148.026 30.4373 140.816 31.5685 140.816 24.8302C140.816 20.5826 143.513 18.442 146.561 18.442C148.894 18.3439 151.083 19.9403 152.275 22.609L148.524 25.2964C148.187 24.2535 147.414 23.5788 146.561 23.5828C145.798 23.5828 145.329 23.9763 145.329 24.6728C145.335 26.894 152.544 25.4125 152.544 32.6191Z" fill="#19191B"/>
<path d="M168.603 18.9871V38.4643H164.207V36.6327C163.178 38.2722 161.62 39.1561 160.018 39.0093C157.057 39.0093 154.541 36.2057 154.541 30.943V18.9871H158.937V30.0871C158.863 31.026 159.103 31.9609 159.594 32.6431C160.085 33.3253 160.777 33.6857 161.486 33.6285C163.098 33.6285 164.211 32.3831 164.211 29.6169V18.993L168.603 18.9871Z" fill="#19191B"/>
<path d="M193.812 26.5044V38.4623H189.416V27.0101C189.416 25.0623 188.713 23.817 187.307 23.817C185.841 23.817 185.02 25.1804 185.02 27.4783V38.4623H180.625V27.0101C180.625 25.0623 179.922 23.817 178.514 23.817C177.048 23.817 176.228 25.1804 176.228 27.4783V38.4623H171.832V18.985H176.228V20.7754C177.154 19.1615 178.633 18.2821 180.155 18.4401C181.686 18.3406 183.143 19.3161 183.994 21.0095C184.984 19.2392 186.589 18.2689 188.244 18.4401C191.608 18.442 193.812 21.6351 193.812 26.5044Z" fill="#19191B"/>
<path d="M197.531 18.8671C199.333 18.8671 200.793 16.9258 200.793 14.531C200.793 12.1362 199.333 10.1948 197.531 10.1948C195.729 10.1948 194.268 12.1362 194.268 14.531C194.268 16.9258 195.729 18.8671 197.531 18.8671Z" fill="#19191B"/>
</svg>
